<?xml version="1.0" encoding="UTF-8"?>
<svg id="Layer_1" data-name="Layer 1" xmlns="http://www.w3.org/2000/svg" viewBox="0 0 297.44 384.23">
  <defs>
    <style>
      .cls-1 {
        fill: #2fc0ff;
      }
    </style>
  </defs>
  <path class="cls-1" d="M126.02,384.23c-32.2-26.83-63.43-56.8-88.06-90.93-16.7-23.14-31.99-50.13-36.41-78.74-7.94-51.43,14.95-101.24,60.78-126.05,44.25-23.95,100.06-21.02,140.42,9.31,11.64-6.91,23.02-14.24,34.71-21.06l.48.48-113.58,139.06L4.77,170.81l127.8,110.31,113.53-201.95-10.58,55.89c24.65,46.45,18.5,95.86-9.07,139.15-26.29,41.29-63.38,76.1-98.67,109.56"/>
  <path class="cls-1" d="M4.05,170.32v.48c.31-.16.31-.32,0-.48Z"/>
  <path class="cls-1" d="M276.81,108.91l-30.14-31.03,19.11-32.78-25.73,29.17-32.8-10.22L297.44,0l-20.63,108.91ZM266.25,44.62c.84-.1,1.86-2.5,1.91-3.36-.7.56-2.37,2.09-2.39,2.88-.01.36.11.52.48.48Z"/>
  <path class="cls-1" d="M237.47,76.77c.33-.19.43-1.32,1.44-.96v.71s-.96.72-.96.72l-.48-.48Z"/>
  <path class="cls-1" d="M4.05,170.32c.31.16.31.32,0,.48v-.48Z"/>
  <path class="cls-1" d="M266.25,44.62l-.48-.48c.03-.78,1.7-2.31,2.39-2.88-.05.85-1.08,3.26-1.91,3.36Z"/>
  <path class="cls-1" d="M266.25,44.62c-.37.04-.49-.12-.48-.48l.48.48Z"/>
</svg>